<svg width="25" height="24" viewBox="0 0 25 24" fill="none" xmlns="http://www.w3.org/2000/svg">
<g clip-path="url(#clip0_1_385)">
<path d="M19.9995 2.24973H7.24945C6.45408 2.25064 5.69155 2.567 5.12914 3.12941C4.56672 3.69182 4.25036 4.45436 4.24945 5.24973V21.7497C4.24939 21.8482 4.26875 21.9458 4.30643 22.0368C4.3441 22.1278 4.39934 22.2105 4.46899 22.2802C4.53865 22.3498 4.62135 22.4051 4.71237 22.4428C4.80339 22.4804 4.90094 22.4998 4.99945 22.4997H18.4995C18.6984 22.4997 18.8891 22.4207 19.0298 22.2801C19.1704 22.1394 19.2495 21.9486 19.2495 21.7497C19.2495 21.5508 19.1704 21.36 19.0298 21.2194C18.8891 21.0787 18.6984 20.9997 18.4995 20.9997H5.74945C5.74984 20.602 5.908 20.2207 6.18922 19.9395C6.47044 19.6583 6.85175 19.5001 7.24945 19.4997H19.9995C20.098 19.4998 20.1955 19.4804 20.2865 19.4428C20.3776 19.4051 20.4603 19.3498 20.5299 19.2802C20.5996 19.2105 20.6548 19.1278 20.6925 19.0368C20.7301 18.9458 20.7495 18.8482 20.7495 18.7497V2.99973C20.7495 2.90122 20.7301 2.80367 20.6925 2.71265C20.6548 2.62163 20.5996 2.53892 20.5299 2.46927C20.4603 2.39961 20.3776 2.34437 20.2865 2.3067C20.1955 2.26903 20.098 2.24967 19.9995 2.24973Z" fill="#B76B5E"/>
</g>
<defs>
<clipPath id="clip0_1_385">
<rect width="24" height="24" fill="white" transform="translate(0.5)"/>
</clipPath>
</defs>
</svg>
