<svg width="25" height="34" viewBox="0 0 25 34" fill="none" xmlns="http://www.w3.org/2000/svg">
<g clip-path="url(#clip0_1_388)">
<path d="M6.77529 20.3413C7.13732 20.3413 7.44153 20.2181 7.68792 19.9717C7.9343 19.7253 8.0575 19.4211 8.0575 19.059V12.6781C8.0575 11.7932 8.24606 11.0163 8.62318 10.3475C9.0003 9.67876 9.52827 9.15834 10.2071 8.78625C10.8859 8.41415 11.6829 8.22811 12.598 8.22811C13.9456 8.22811 15.0242 8.63037 15.8337 9.4349C16.6433 10.2394 17.0481 11.3054 17.0481 12.6329C17.0481 12.9849 17.1738 13.2866 17.4252 13.538C17.6766 13.7894 17.9783 13.9151 18.3303 13.9151C18.6823 13.9151 18.984 13.7894 19.2354 13.538C19.4868 13.2866 19.6125 12.9849 19.6125 12.6329C19.6125 11.2451 19.3183 10.0308 18.73 8.98989C18.1417 7.94904 17.3246 7.13696 16.2787 6.55368C15.2329 5.9704 14.006 5.67876 12.598 5.67876C11.1801 5.67876 9.93806 5.97292 8.87207 6.56123C7.80607 7.14954 6.97641 7.96915 6.38307 9.02006C5.78973 10.071 5.49306 11.2903 5.49306 12.6781V19.059C5.49306 19.4211 5.61374 19.7253 5.85509 19.9717C6.09645 20.2181 6.40319 20.3413 6.77529 20.3413ZM6.59427 16.1326H11.1951C11.6578 16.1326 12.0298 16.2608 12.3114 16.5172C12.593 16.7737 12.7338 17.1081 12.7338 17.5204C12.7338 17.7617 12.6835 18.0106 12.583 18.2671C12.4824 18.5235 12.3416 18.7573 12.1606 18.9685L10.5465 21.005C10.3152 21.2966 10.1995 21.6034 10.1995 21.9252C10.1995 22.2671 10.3252 22.5587 10.5767 22.8001C10.8281 23.0414 11.1298 23.1621 11.4818 23.1621C11.884 23.1621 12.2259 22.9811 12.5075 22.6191L14.2875 20.3714C14.6094 19.9692 14.8658 19.4965 15.0569 18.9534C15.2479 18.4104 15.3435 17.9025 15.3435 17.4299C15.3435 16.2834 14.9588 15.3557 14.1895 14.6467C13.4202 13.9377 12.412 13.5832 11.165 13.5832H6.59426L6.59427 16.1326ZM0.499977 26.1942C0.499977 27.7127 0.791617 29.0151 1.3749 30.1012C1.95818 31.1873 2.78784 32.0245 3.8639 32.6128C4.93995 33.2011 6.21714 33.4953 7.69546 33.4953C9.35479 33.4953 10.7954 33.1131 12.0173 32.3488C13.2391 31.5845 14.2373 30.4884 15.0116 29.0603L16.324 26.6317C16.7866 25.7668 17.307 24.995 17.8853 24.3161C18.4635 23.6373 19.0594 22.9937 19.6728 22.3853C20.2863 21.7769 20.8796 21.1584 21.4529 20.5298C22.0261 19.9013 22.5415 19.2175 22.9991 18.4783C23.4566 17.7391 23.8212 16.8969 24.0927 15.9516C24.3642 15.0063 24.5 13.9051 24.5 12.648C24.5 10.2244 24.0047 8.10242 23.0141 6.28217C22.0236 4.46193 20.6358 3.04395 18.8507 2.02824C17.0657 1.01253 14.9865 0.504669 12.6131 0.504669C10.1895 0.504669 8.07258 1.01756 6.2624 2.04333C4.45221 3.0691 3.03926 4.49965 2.02355 6.33497C1.00783 8.1703 0.499976 10.3098 0.499976 12.7536L0.499977 26.1942ZM3.48678 26.1037V12.7536C3.48678 10.9031 3.86642 9.28404 4.62569 7.89623C5.38496 6.50842 6.45096 5.42985 7.82369 4.66052C9.19641 3.8912 10.7929 3.50654 12.6131 3.50654C14.3931 3.50654 15.9519 3.88617 17.2894 4.64544C18.627 5.40472 19.6653 6.47323 20.4045 7.85098C21.1436 9.22873 21.5132 10.8277 21.5132 12.648C21.5132 13.6838 21.3925 14.5914 21.1512 15.3708C20.9098 16.1502 20.5754 16.8541 20.148 17.4827C19.7206 18.1112 19.2379 18.7096 18.6999 19.2778C18.1619 19.846 17.5962 20.4267 17.0028 21.0201C16.4095 21.6134 15.8212 22.2646 15.2379 22.9736C14.6546 23.6826 14.1065 24.4996 13.5937 25.4249L12.4019 27.5518C11.8891 28.5072 11.263 29.2313 10.5239 29.724C9.78472 30.2168 8.88717 30.4632 7.83123 30.4632C6.47359 30.4632 5.41011 30.076 4.64078 29.3017C3.87145 28.5273 3.48678 27.4613 3.48678 26.1037Z" fill="#F2A481"/>
</g>
<defs>
<clipPath id="clip0_1_388">
<rect width="24" height="32.9906" fill="white" transform="translate(0.5 0.5047)"/>
</clipPath>
</defs>
</svg>
