<svg width="16" height="17" viewBox="0 0 16 17" fill="none" xmlns="http://www.w3.org/2000/svg">
<g clip-path="url(#clip0_1_674)">
<path d="M15 8C14.9991 7.20463 14.6827 6.4421 14.1203 5.87968C13.5579 5.31727 12.7954 5.00091 12 5H9.50104C9.46863 4.99988 6.22724 4.95691 3.14313 2.37024C2.99738 2.24777 2.8197 2.16946 2.63097 2.1445C2.44224 2.11955 2.2503 2.14898 2.07773 2.22936C1.90515 2.30973 1.75911 2.43769 1.65676 2.59821C1.5544 2.75873 1.5 2.94513 1.49994 3.1355V12.8645C1.49878 13.055 1.55258 13.2417 1.6549 13.4024C1.75721 13.563 1.9037 13.6907 2.07679 13.7702C2.2099 13.8327 2.35513 13.8653 2.5022 13.8655C2.73695 13.8651 2.96396 13.7816 3.14307 13.6298C5.51041 11.6443 7.97022 11.1576 9 11.0385V13.2324C8.99981 13.3971 9.04036 13.5592 9.11805 13.7044C9.19574 13.8496 9.30815 13.9733 9.44525 14.0645L10.1323 14.5225C10.2657 14.6114 10.4184 14.6669 10.5777 14.6844C10.737 14.7019 10.8981 14.6809 11.0476 14.6231C11.197 14.5653 11.3304 14.4725 11.4365 14.3524C11.5426 14.2323 11.6182 14.0884 11.6571 13.933L12.3971 10.9729C13.1171 10.8759 13.7776 10.5213 14.2562 9.97464C14.7347 9.42803 14.999 8.72651 15 8ZM10.687 13.6904L10 13.2324V11H11.3596L10.687 13.6904ZM12 10H10V6H12C12.5304 6 13.0391 6.21071 13.4142 6.58579C13.7893 6.96086 14 7.46957 14 8C14 8.53043 13.7893 9.03914 13.4142 9.41421C13.0391 9.78929 12.5304 10 12 10Z" fill="#B76B5E"/>
</g>
<defs>
<clipPath id="clip0_1_674">
<rect width="16" height="16" fill="white" transform="translate(0 0.5)"/>
</clipPath>
</defs>
</svg>
