<svg width="33" height="32" viewBox="0 0 33 32" fill="none" xmlns="http://www.w3.org/2000/svg">
<g clip-path="url(#clip0_2_79)">
<path d="M28.2465 19.8033L22.3917 17.2942C22.086 17.1626 21.7523 17.1096 21.4209 17.1401C21.0895 17.1705 20.771 17.2834 20.4944 17.4685L17.364 19.5552C15.4508 18.6247 13.9023 17.083 12.9634 15.174L12.9636 15.1737L15.043 11.9965C15.224 11.7206 15.3338 11.4042 15.3626 11.0756C15.3914 10.7469 15.3383 10.4163 15.208 10.1132L12.6965 4.25342C12.5256 3.85566 12.2304 3.52398 11.8551 3.30803C11.4799 3.09209 11.0448 3.00351 10.615 3.05554C8.92607 3.27269 7.37398 4.09728 6.24865 5.37525C5.12331 6.65323 4.50173 8.29718 4.5 10C4.5 19.9253 12.5747 28 22.5 28C24.2028 27.9983 25.8468 27.3767 27.1248 26.2513C28.4028 25.126 29.2273 23.5738 29.4445 21.8849C29.4964 21.4551 29.4077 21.02 29.1917 20.6448C28.9758 20.2696 28.6442 19.9744 28.2465 19.8033Z" fill="white"/>
<path d="M20.5 13C20.6314 13.0002 20.7614 12.9744 20.8828 12.9241C21.0041 12.8739 21.1144 12.8001 21.2072 12.7072L25.5 8.41431V11C25.5 11.2652 25.6054 11.5196 25.7929 11.7071C25.9804 11.8946 26.2348 12 26.5 12C26.7652 12 27.0196 11.8946 27.2071 11.7071C27.3946 11.5196 27.5 11.2652 27.5 11V6.00061C27.5 5.96741 27.4983 5.93414 27.495 5.901C27.4937 5.88757 27.4911 5.87463 27.4893 5.86139C27.4866 5.84228 27.4843 5.82318 27.4806 5.8042C27.4775 5.78857 27.4732 5.77344 27.4693 5.75806C27.4652 5.74176 27.4616 5.7254 27.4567 5.70929C27.4522 5.69421 27.4465 5.67969 27.4412 5.66492C27.4356 5.6488 27.4302 5.63269 27.4237 5.61682C27.418 5.60339 27.4114 5.59045 27.4053 5.57727C27.3976 5.56079 27.3902 5.54419 27.3815 5.52807C27.3751 5.51593 27.3676 5.50445 27.3607 5.49267C27.3511 5.47638 27.3418 5.45996 27.3312 5.44415C27.3229 5.43182 27.3136 5.42022 27.3048 5.40832C27.2943 5.39398 27.2843 5.37945 27.2729 5.3656C27.2584 5.34796 27.2427 5.33142 27.227 5.31482C27.2202 5.30755 27.2142 5.29992 27.2072 5.29284C27.2005 5.28619 27.1932 5.28051 27.1864 5.27411C27.1694 5.25799 27.1524 5.24188 27.1343 5.22698C27.1212 5.2163 27.1075 5.2069 27.0941 5.19695C27.0812 5.18743 27.0689 5.17754 27.0556 5.16863C27.0408 5.15874 27.0255 5.15013 27.0103 5.14111C26.9973 5.13341 26.9847 5.1253 26.9714 5.11816C26.9566 5.11028 26.9414 5.10357 26.9263 5.09649C26.9118 5.08959 26.8974 5.08233 26.8825 5.0761C26.8684 5.0703 26.854 5.0656 26.8397 5.06048C26.8231 5.05444 26.8068 5.04815 26.7898 5.04302C26.7761 5.03887 26.7622 5.03588 26.7484 5.03234C26.7306 5.02782 26.713 5.02288 26.6949 5.01928C26.6797 5.01629 26.6644 5.01458 26.6491 5.01232C26.6321 5.00976 26.6153 5.00664 26.598 5.00493C26.5728 5.00249 26.5474 5.00164 26.5221 5.00109C26.5147 5.00098 26.5074 5 26.5 5H21.5C21.2348 5 20.9804 5.10536 20.7929 5.29289C20.6054 5.48043 20.5 5.73478 20.5 6C20.5 6.26522 20.6054 6.51957 20.7929 6.70711C20.9804 6.89464 21.2348 7 21.5 7H24.0857L19.7928 11.2928C19.653 11.4327 19.5577 11.6109 19.5191 11.8049C19.4805 11.9989 19.5003 12.2 19.576 12.3827C19.6517 12.5654 19.7799 12.7216 19.9444 12.8315C20.1088 12.9414 20.3022 13 20.5 13Z" fill="white"/>
</g>
<defs>
<clipPath id="clip0_2_79">
<rect width="32" height="32" fill="white" transform="translate(0.5)"/>
</clipPath>
</defs>
</svg>
