<svg width="33" height="32" viewBox="0 0 33 32" fill="none" xmlns="http://www.w3.org/2000/svg">
<g clip-path="url(#clip0_2_30)">
<path d="M28.2465 19.8033L22.3917 17.2942C22.0861 17.1626 21.7523 17.1096 21.4209 17.14C21.0895 17.1705 20.771 17.2834 20.4944 17.4685L17.364 19.5552C15.4508 18.6247 13.9023 17.083 12.9634 15.174L12.9636 15.1737L15.043 11.9965C15.224 11.7206 15.3338 11.4042 15.3626 11.0756C15.3914 10.7469 15.3383 10.4163 15.208 10.1132L12.6965 4.25342C12.5255 3.85569 12.2303 3.52404 11.8551 3.30811C11.4799 3.09217 11.0448 3.00356 10.615 3.05555C8.92607 3.2727 7.37398 4.09728 6.24865 5.37526C5.12331 6.65324 4.50173 8.29719 4.5 10C4.5 19.9253 12.5747 28 22.5 28C24.2028 27.9983 25.8468 27.3767 27.1248 26.2513C28.4028 25.126 29.2273 23.5738 29.4445 21.8849C29.4964 21.4551 29.4077 21.02 29.1917 20.6448C28.9758 20.2696 28.6442 19.9744 28.2465 19.8033Z" fill="white"/>
<path d="M19.7929 12.7072C19.9804 12.8947 20.2348 13 20.5 13C20.7652 13 21.0196 12.8947 21.2072 12.7072L23.5 10.4143L25.7929 12.7072C25.9804 12.8947 26.2348 13.0001 26.5 13.0001C26.7652 13.0001 27.0196 12.8947 27.2072 12.7072C27.3947 12.5196 27.5001 12.2652 27.5001 12C27.5001 11.7348 27.3947 11.4804 27.2072 11.2929L24.9143 9.00001L27.2072 6.70716C27.3 6.61429 27.3737 6.50405 27.4239 6.38271C27.4742 6.26138 27.5001 6.13134 27.5001 6.00001C27.5001 5.86867 27.4742 5.73863 27.4239 5.6173C27.3737 5.49596 27.3 5.38572 27.2072 5.29285C27.1143 5.19999 27.004 5.12632 26.8827 5.07606C26.7614 5.02581 26.6313 4.99994 26.5 4.99994C26.3687 4.99994 26.2386 5.02581 26.1173 5.07606C25.996 5.12632 25.8857 5.19999 25.7929 5.29285L23.5 7.5857L21.2072 5.29285C21.0196 5.1053 20.7652 4.99994 20.5 4.99994C20.2348 4.99994 19.9804 5.1053 19.7929 5.29285C19.6053 5.4804 19.4999 5.73477 19.4999 6.00001C19.4999 6.26524 19.6053 6.51961 19.7929 6.70716L22.0857 9.00001L19.7929 11.2929C19.6053 11.4804 19.5 11.7348 19.5 12C19.5 12.2652 19.6053 12.5196 19.7929 12.7072Z" fill="white"/>
</g>
<defs>
<clipPath id="clip0_2_30">
<rect width="32" height="32" fill="white" transform="translate(0.5)"/>
</clipPath>
</defs>
</svg>
