<svg width="32" height="32" viewBox="0 0 32 32" fill="none" xmlns="http://www.w3.org/2000/svg">
<g clip-path="url(#clip0_2_2)">
<path d="M27.7465 19.8033L21.8917 17.2942C21.5861 17.1626 21.2523 17.1096 20.9209 17.14C20.5895 17.1705 20.271 17.2834 19.9944 17.4685L16.864 19.5552C14.9508 18.6247 13.4023 17.083 12.4634 15.1739L12.4636 15.1737L14.543 11.9965C14.724 11.7206 14.8338 11.4042 14.8626 11.0756C14.8914 10.7469 14.8383 10.4163 14.708 10.1132L12.1965 4.25342C12.0255 3.85575 11.7302 3.52416 11.355 3.30824C10.9798 3.09231 10.5448 3.00366 10.115 3.05554C8.42607 3.27269 6.87398 4.09728 5.74865 5.37525C4.62331 6.65323 4.00173 8.29718 4 10C4 19.9253 12.0747 28 22 28C23.7028 27.9983 25.3468 27.3767 26.6248 26.2513C27.9028 25.126 28.7273 23.5738 28.9445 21.8849C28.9964 21.4551 28.9077 21.02 28.6917 20.6448C28.4758 20.2696 28.1442 19.9744 27.7465 19.8033Z" fill="white"/>
<path d="M19.0107 12.1386C19.0134 12.1577 19.0157 12.1768 19.0194 12.1958C19.0225 12.2114 19.0269 12.2266 19.0307 12.242C19.0348 12.2582 19.0384 12.2746 19.0433 12.2907C19.0479 12.3058 19.0535 12.3203 19.0588 12.3351C19.0644 12.3512 19.0698 12.3673 19.0764 12.3832C19.082 12.3966 19.0886 12.4096 19.0947 12.4227C19.1024 12.4392 19.1098 12.4558 19.1185 12.4719C19.1249 12.4841 19.1324 12.4956 19.1393 12.5073C19.1489 12.5236 19.1582 12.54 19.1688 12.5559C19.1771 12.5682 19.1864 12.5798 19.1952 12.5917C19.2057 12.606 19.2157 12.6206 19.2271 12.6344C19.2416 12.652 19.2573 12.6686 19.273 12.6852C19.2798 12.6925 19.2858 12.7001 19.2928 12.7072C19.2996 12.7139 19.3071 12.7197 19.314 12.7263C19.3309 12.7422 19.3477 12.7582 19.3657 12.773C19.379 12.7839 19.393 12.7935 19.4067 12.8037C19.4193 12.8129 19.4314 12.8226 19.4443 12.8313C19.4596 12.8415 19.4753 12.8504 19.491 12.8596C19.5034 12.867 19.5156 12.8748 19.5283 12.8817C19.5438 12.89 19.5598 12.897 19.5756 12.9045C19.5894 12.911 19.603 12.9179 19.6171 12.9237C19.6323 12.93 19.6477 12.9351 19.6631 12.9406C19.6785 12.9461 19.6938 12.952 19.7096 12.9569C19.7248 12.9614 19.7402 12.9648 19.7556 12.9687C19.7719 12.9728 19.788 12.9773 19.8046 12.9806C19.8221 12.9841 19.84 12.9862 19.8577 12.9887C19.8723 12.9908 19.8865 12.9935 19.9013 12.995C19.9341 12.9982 19.967 13 20 13H25C25.2652 13 25.5196 12.8946 25.7071 12.7071C25.8946 12.5196 26 12.2652 26 12C26 11.7348 25.8946 11.4804 25.7071 11.2929C25.5196 11.1054 25.2652 11 25 11H22.4143L26.7072 6.70716C26.8 6.61429 26.8737 6.50405 26.9239 6.38271C26.9742 6.26138 27.0001 6.13134 27.0001 6.00001C27.0001 5.86868 26.9742 5.73863 26.9239 5.6173C26.8737 5.49596 26.8 5.38572 26.7072 5.29285C26.6143 5.19999 26.504 5.12632 26.3827 5.07606C26.2614 5.02581 26.1313 4.99994 26 4.99994C25.8687 4.99994 25.7386 5.02581 25.6173 5.07606C25.496 5.12632 25.3857 5.19999 25.2928 5.29285L21 9.5857V7.00001C21 6.73479 20.8946 6.48044 20.7071 6.2929C20.5196 6.10537 20.2652 6.00001 20 6.00001C19.7348 6.00001 19.4804 6.10537 19.2929 6.2929C19.1054 6.48044 19 6.73479 19 7.00001V11.9994C19 12.0326 19.0017 12.0659 19.005 12.099C19.0063 12.1124 19.0089 12.1254 19.0107 12.1386Z" fill="white"/>
</g>
<defs>
<clipPath id="clip0_2_2">
<rect width="32" height="32" fill="white"/>
</clipPath>
</defs>
</svg>
