<svg width="16" height="17" viewBox="0 0 16 17" fill="none" xmlns="http://www.w3.org/2000/svg">
<g clip-path="url(#clip0_1_688)">
<path d="M8 2C6.71442 2 5.45772 2.38122 4.3888 3.09545C3.31988 3.80968 2.48676 4.82484 1.99479 6.01256C1.50282 7.20028 1.37409 8.50721 1.6249 9.76809C1.8757 11.029 2.49477 12.1872 3.40381 13.0962C4.31285 14.0052 5.47104 14.6243 6.73192 14.8751C7.99279 15.1259 9.29973 14.9972 10.4874 14.5052C11.6752 14.0132 12.6903 13.1801 13.4046 12.1112C14.1188 11.0423 14.5 9.78558 14.5 8.5C14.498 6.7767 13.8126 5.12456 12.594 3.90601C11.3754 2.68745 9.7233 2.00199 8 2ZM5.75 8C5.60167 8 5.45666 7.95601 5.33333 7.8736C5.20999 7.79119 5.11386 7.67406 5.05709 7.53701C5.00033 7.39997 4.98547 7.24917 5.01441 7.10368C5.04335 6.9582 5.11478 6.82456 5.21967 6.71967C5.32456 6.61478 5.4582 6.54335 5.60368 6.51441C5.74917 6.48547 5.89997 6.50032 6.03702 6.55709C6.17406 6.61386 6.29119 6.70999 6.37361 6.83332C6.45602 6.95666 6.5 7.10166 6.5 7.25C6.49999 7.44891 6.42097 7.63967 6.28032 7.78032C6.13967 7.92097 5.94891 7.99999 5.75 8ZM10.25 8C10.1017 8 9.95666 7.95601 9.83333 7.8736C9.70999 7.79119 9.61386 7.67406 9.55709 7.53701C9.50033 7.39997 9.48548 7.24917 9.51441 7.10368C9.54335 6.9582 9.61478 6.82456 9.71967 6.71967C9.82456 6.61478 9.9582 6.54335 10.1037 6.51441C10.2492 6.48547 10.4 6.50032 10.537 6.55709C10.6741 6.61386 10.7912 6.70999 10.8736 6.83332C10.956 6.95666 11 7.10166 11 7.25C11 7.44891 10.921 7.63967 10.7803 7.78032C10.6397 7.92097 10.4489 7.99999 10.25 8Z" fill="#B76B5E"/>
</g>
<defs>
<clipPath id="clip0_1_688">
<rect width="16" height="16" fill="white" transform="translate(0 0.5)"/>
</clipPath>
</defs>
</svg>
