<svg width="88" height="88" viewBox="0 0 88 88" fill="none" xmlns="http://www.w3.org/2000/svg">
<rect width="88" height="88" rx="44" fill="white"/>
<g clip-path="url(#clip0_11_216)">
<path d="M35.8467 48.7588C36.3623 48.7588 36.7956 48.5833 37.1465 48.2324C37.4974 47.8815 37.6728 47.4482 37.6728 46.9326V37.8447C37.6728 36.5843 37.9414 35.4778 38.4785 34.5254C39.0156 33.5729 39.7676 32.8317 40.7344 32.3017C41.7012 31.7718 42.8363 31.5068 44.1396 31.5068C46.0589 31.5068 47.5951 32.0797 48.748 33.2256C49.901 34.3714 50.4775 35.8896 50.4775 37.7803C50.4775 38.2816 50.6566 38.7112 51.0146 39.0693C51.3727 39.4274 51.8024 39.6064 52.3037 39.6064C52.805 39.6064 53.2347 39.4274 53.5928 39.0693C53.9508 38.7112 54.1299 38.2816 54.1299 37.7803C54.1299 35.8037 53.7109 34.0742 52.873 32.5918C52.0351 31.1094 50.8714 29.9528 49.3818 29.122C47.8922 28.2913 46.1448 27.876 44.1396 27.876C42.1201 27.876 40.3512 28.2949 38.833 29.1328C37.3148 29.9707 36.1331 31.138 35.2881 32.6347C34.443 34.1315 34.0205 35.8681 34.0205 37.8447V46.9326C34.0205 47.4482 34.1924 47.8815 34.5361 48.2324C34.8799 48.5833 35.3167 48.7588 35.8467 48.7588ZM35.5889 42.7646H42.1416C42.8005 42.7646 43.3304 42.9472 43.7314 43.3125C44.1325 43.6777 44.333 44.1539 44.333 44.7412C44.333 45.0849 44.2614 45.4394 44.1182 45.8047C43.9749 46.1699 43.7744 46.5029 43.5166 46.8037L41.2178 49.7041C40.8883 50.1194 40.7236 50.5563 40.7236 51.0146C40.7236 51.5016 40.9027 51.917 41.2607 52.2607C41.6188 52.6045 42.0485 52.7763 42.5498 52.7763C43.1227 52.7763 43.6097 52.5185 44.0107 52.0029L46.5459 48.8017C47.0042 48.2288 47.3695 47.5556 47.6416 46.7822C47.9137 46.0088 48.0498 45.2855 48.0498 44.6123C48.0498 42.9795 47.5019 41.6582 46.4062 40.6484C45.3105 39.6386 43.8747 39.1338 42.0986 39.1338H35.5889L35.5889 42.7646ZM26.9092 57.0947C26.9092 59.2575 27.3245 61.1123 28.1553 62.6592C28.986 64.206 30.1676 65.3984 31.7002 66.2363C33.2327 67.0742 35.0518 67.4932 37.1572 67.4932C39.5205 67.4932 41.5723 66.9489 43.3125 65.8603C45.0527 64.7718 46.4743 63.2106 47.5771 61.1768L49.4463 57.7178C50.1051 56.486 50.8463 55.3867 51.6699 54.4199C52.4935 53.4531 53.3421 52.5365 54.2158 51.6699C55.0895 50.8034 55.9346 49.9225 56.751 49.0273C57.5674 48.1322 58.3014 47.1582 58.9531 46.1055C59.6048 45.0527 60.124 43.8532 60.5107 42.5068C60.8975 41.1605 61.0908 39.5921 61.0908 37.8018C61.0908 34.3499 60.3854 31.3278 58.9746 28.7354C57.5638 26.1429 55.5872 24.1234 53.0449 22.6768C50.5026 21.2301 47.5413 20.5068 44.1611 20.5068C40.7093 20.5068 37.6943 21.2373 35.1162 22.6982C32.5381 24.1592 30.5257 26.1966 29.0791 28.8105C27.6325 31.4245 26.9092 34.4717 26.9092 37.9521L26.9092 57.0947ZM31.1631 56.9658V37.9521C31.1631 35.3167 31.7038 33.0107 32.7852 31.0341C33.8665 29.0576 35.3848 27.5214 37.3399 26.4257C39.2949 25.33 41.5687 24.7822 44.1611 24.7822C46.6963 24.7822 48.9163 25.3229 50.8213 26.4043C52.7262 27.4856 54.2051 29.0075 55.2578 30.9697C56.3106 32.9319 56.8369 35.2093 56.8369 37.8017C56.8369 39.277 56.665 40.5696 56.3213 41.6797C55.9775 42.7897 55.5013 43.7923 54.8926 44.6875C54.2839 45.5826 53.5964 46.4349 52.8301 47.2441C52.0638 48.0533 51.2581 48.8805 50.4131 49.7256C49.568 50.5706 48.7302 51.498 47.8994 52.5078C47.0687 53.5175 46.2881 54.6813 45.5576 55.999L43.8604 59.0283C43.1299 60.389 42.2383 61.4202 41.1856 62.122C40.1328 62.8239 38.8545 63.1748 37.3506 63.1748C35.417 63.1748 33.9024 62.6233 32.8066 61.5205C31.7109 60.4176 31.1631 58.8994 31.1631 56.9658Z" fill="#B76B5E"/>
</g>
<defs>
<clipPath id="clip0_11_216">
<rect width="34.1816" height="46.9863" fill="white" transform="translate(26.9092 20.5068)"/>
</clipPath>
</defs>
</svg>
